<svg version="1.2" xmlns="http://www.w3.org/2000/svg" viewBox="0 0 100 100" width="100" height="100"><style></style><path fill-rule="evenodd" d="m80.9 6.6c15.7 2 24.6 18.3 14 37.4-4.4 8-2.4 7.5-3.7 15.3-3.9 24.1-50.8 43.9-65.9 29.6-6.8-6.4-7.8-15.7-5.9-23.1 0-0.1 0.6-2.8 3.2-6.5 0 0 0.9-1.3-0.4-2.2-1.4-1.2-2.5 0.3-2.5 0.3-2.9 4.3-3.6 7.5-3.6 7.6-0.2 0.5-0.5 2.1-0.5 2.1-9.9 2.7-14.4-2.1-15-7.6-1.4-12.8 8.4-18.5 12.9-12.5-1 0.7-2.5 1.9-3.8 3.7-0.3 0.4-0.9 1.9 0.3 2.6 1.1 0.7 2.1 0 2.3-0.3 1.2-1.6 2.7-2.9 2.8-2.9 7.8-7 17.1-7.4 21.7-1.6-5.4 8.5-2.8 14.3-0.7 16.8q0.7 0.9 1.7 1.6c0.1 0.9 0.4 2.9-0.1 5.2 0 0-0.1 0.5-0.1 0.7 0 0.9 0.7 1.7 1.7 1.7 0.9 0 1.5-0.8 1.7-1.7 0.3-1.4 0.4-2.8 0.4-3.9 3.1 1.2 6.8 1.7 10.8 1.7 5 0 10.5-0.8 15.5-2 0.8-0.3 1.3-1.1 1.1-2-0.1-0.9-1-1.5-2-1.3-13 3.3-24.3 2.4-28.1-2.2-2.1-2.5-2.4-6.2 0-10.8 1.7-3.3 5.8-6.7 13.5-9.6 1.2 2.8 2.8 4.7 4.6 6-2.9 1.1-4.8 2.3-6.2 3.5-0.5 0.4-1.4 1.5-0.4 2.5 1.1 1 2.9-0.4 2.9-0.4 6-3.9 15.4-5.2 15.4-5.2 0 0-3.9-0.7-7-1.8-4-1.6-8.9-6-7.8-20.2 1.1-13.7 11.9-22.5 27.2-20.5zm-56.3 10.5l0.2-4.5c5.6 0.3 10.2 2.5 13 6.4 2.8 3.8 3.6 9 2.1 14.2-1.7 6.2 1.2 9.9 1.9 10.7-0.3 0.2-2.2 1.6-3.4 3-1.3-1.5-5.1-6.7-2.8-14.9 1.1-3.9 0.5-7.6-1.5-10.3-2-2.8-5.3-4.4-9.5-4.6z"/></svg>